<svg xmlns="http://www.w3.org/2000/svg" width="36" height="31" viewBox="0 0 36 31"><defs><style>.a{fill:#d9d9d9;}</style></defs><g transform="translate(-892 -164)"><rect class="a" width="36" height="31" transform="translate(892 164)"/><g transform="translate(901 172)"><path d="M0,0H4.154V4.154H0ZM0,0"/><path d="M149.3,0h12V4.154h-12Zm0,0" transform="translate(-143.823)"/><path d="M0,147.008H4.154v4.154H0Zm0,0" transform="translate(0 -141.085)"/><path d="M149.3,147.008h12v4.154h-12Zm0,0" transform="translate(-143.823 -141.085)"/><path d="M0,294.012H4.154v4.154H0Zm0,0" transform="translate(0 -282.166)"/><path d="M149.3,294.012h12v4.154h-12Zm0,0" transform="translate(-143.823 -282.166)"/></g></g></svg>